<?xml version="1.0" encoding="UTF-8" standalone="no"?>
<!-- Generator: Adobe Illustrator 15.1.0, SVG Export Plug-In . SVG Version: 6.00 Build 0)  -->

<svg
 xmlns:dc="http://purl.org/dc/elements/1.1/"
 xmlns:cc="http://creativecommons.org/ns#"
 xmlns:rdf="http://www.w3.org/1999/02/22-rdf-syntax-ns#"
 xmlns:svg="http://www.w3.org/2000/svg"
 xmlns="http://www.w3.org/2000/svg"
 xmlns:sodipodi="http://sodipodi.sourceforge.net/DTD/sodipodi-0.dtd"
 xmlns:inkscape="http://www.inkscape.org/namespaces/inkscape"
 version="1.1"
 id="Layer_1"
 x="0px"
 y="0px"
 width="15"
 height="11"
 viewBox="0 0 15 11"
 enable-background="new 0 0 32 32"
 xml:space="preserve"
 inkscape:version="0.48.3.1 r9886"
 sodipodi:docname="ime-active.svg"><metadata
 id="metadata7"><rdf:RDF><cc:Work
 rdf:about=""><dc:format>image/svg+xml</dc:format><dc:type
 rdf:resource="http://purl.org/dc/dcmitype/StillImage" /><dc:title /></cc:Work></rdf:RDF></metadata><defs
 id="defs5" /><sodipodi:namedview
 pagecolor="#ffffff"
 bordercolor="#666666"
 borderopacity="1"
 objecttolerance="10"
 gridtolerance="10"
 guidetolerance="10"
 inkscape:pageopacity="0"
 inkscape:pageshadow="2"
 inkscape:window-width="1600"
 inkscape:window-height="842"
 id="namedview3"
 showgrid="false"
 showguides="true"
 inkscape:guide-bbox="true"
 inkscape:zoom="1"
 inkscape:cx="24.423195"
 inkscape:cy="9.4281437"
 inkscape:window-x="1366"
 inkscape:window-y="27"
 inkscape:window-maximized="1"
 inkscape:current-layer="Layer_1"
 fit-margin-top="0"
 fit-margin-left="0"
 fit-margin-right="0"
 fit-margin-bottom="0" />
<path
 style="font-size:medium;font-style:normal;font-variant:normal;font-weight:normal;font-stretch:normal;text-indent:0;text-align:start;text-decoration:none;line-height:normal;letter-spacing:normal;word-spacing:normal;text-transform:none;direction:ltr;block-progression:tb;writing-mode:lr-tb;text-anchor:start;baseline-shift:baseline;color:#000000;fill:#565656;fill-opacity:1;stroke:none;stroke-width:1.5;marker:none;visibility:visible;display:inline;overflow:visible;enable-background:accumulate;font-family:Sans;-inkscape-font-specification:Sans"
 d="m 6.7529297,0 c 0,0 -0.043153,0.10653602 -0.1025391,0.23342175 -0.055763,0.11914873 -0.160995,0.24200467 -0.1611328,0.24801061 -0.034964,0.002614 -0.1756903,0.0496866 -0.3662109,0.0583554 -0.2540274,0.011559 -0.5868825,0.002054 -0.9375,-0.0145889 -0.7012351,-0.0332579 -1.4487375,-0.09987 -1.9482422,-0.0145889 l -0.014648,0 C 2.9207729,0.56658321 2.706232,0.76667934 2.5488285,0.97745358 2.3891026,1.191337 2.2734893,1.4338398 2.1972656,1.66313 2.080664,2.0138821 2.0383807,2.2836892 2.0214844,2.4217507 L 0,2.4217507 0,11 l 15,0 0,-8.5782493 -12.2607422,0 C 2.7623068,2.2824058 2.7983408,2.100813 2.8710938,1.8819629 2.9325088,1.6972194 3.0144953,1.5077612 3.1054688,1.3859416 3.1964418,1.2641221 3.2843985,1.2107544 3.3691406,1.1962865 c 0.2870018,-0.049 1.0579844,-0.00471 1.772461,0.029178 0.3572381,0.016942 0.7114059,0.028207 1.0107421,0.014589 C 6.45168,1.2264352 6.691927,1.2420138 6.9433594,1.035809 7.1397455,0.87473774 7.2051605,0.70028019 7.2802734,0.5397878 7.3553864,0.37929541 7.4121094,0.23342175 7.4121094,0.23342175 L 6.7529297,0 z m -5.3320313,4.3766578 1.1572266,0 c 0.072237,0 0.1318359,0.044766 0.1318359,0.1167109 l 0,1.1671088 c 0,0.071943 -0.059598,0.1312997 -0.1318359,0.1312997 l -1.1572266,0 c -0.072237,0 -0.1318359,-0.059356 -0.1318359,-0.1312997 l 0,-1.1671088 c 0,-0.071943 0.059599,-0.1167109 0.1318359,-0.1167109 z m 2.1240235,0 1.1572265,0 c 0.072237,0 0.131836,0.044766 0.131836,0.1167109 l 0,1.1671088 c 0,0.071943 -0.059599,0.1312997 -0.131836,0.1312997 l -1.1572265,0 c -0.072237,0 -0.131836,-0.059356 -0.131836,-0.1312997 l 0,-1.1671088 c 0,-0.071943 0.059599,-0.1167109 0.131836,-0.1167109 z m 2.1240234,0 1.1572266,0 c 0.072237,0 0.1318359,0.044766 0.1318359,0.1167109 l 0,1.1671088 c 0,0.071943 -0.059599,0.1312997 -0.1318359,0.1312997 l -1.1572266,0 c -0.072237,0 -0.1318359,-0.059356 -0.1318359,-0.1312997 l 0,-1.1671088 c 0,-0.071943 0.059599,-0.1167109 0.1318359,-0.1167109 z m 2.1240234,0 1.1572266,0 c 0.072237,0 0.131836,0.044766 0.131836,0.1167109 l 0,1.1671088 c 0,0.071943 -0.059599,0.1312997 -0.131836,0.1312997 l -1.1572266,0 c -0.072237,0 -0.1318359,-0.059356 -0.1318359,-0.1312997 l 0,-1.1671088 c 0,-0.071943 0.059599,-0.1167109 0.1318359,-0.1167109 z m 2.1240235,0 1.1572268,0 c 0.07224,0 0.131836,0.044766 0.131836,0.1167109 l 0,1.1671088 c 0,0.071943 -0.0596,0.1312997 -0.131836,0.1312997 l -1.1572268,0 c -0.072237,0 -0.1318359,-0.059356 -0.1318359,-0.1312997 l 0,-1.1671088 c 0,-0.071943 0.059599,-0.1167109 0.1318359,-0.1167109 z m 2.1240238,0 1.157226,0 c 0.07224,0 0.131836,0.044766 0.131836,0.1167109 l 0,1.1671088 c 0,0.071943 -0.0596,0.1312997 -0.131836,0.1312997 l -1.157226,0 c -0.07224,0 -0.131836,-0.059356 -0.131836,-0.1312997 l 0,-1.1671088 c 0,-0.071943 0.0596,-0.1167109 0.131836,-0.1167109 z m -9.6240238,2.2466844 1.1572266,0 c 0.072237,0 0.1318359,0.059356 0.1318359,0.1312997 l 0,1.1525199 c 0,0.071943 -0.059599,0.1312997 -0.1318359,0.1312997 l -1.1572266,0 c -0.072237,0 -0.1318359,-0.059356 -0.1318359,-0.1312997 l 0,-1.1525199 c 0,-0.071943 0.059598,-0.1312997 0.1318359,-0.1312997 z m 2.1826172,0 1.1572265,0 c 0.072237,0 0.131836,0.059356 0.131836,0.1312997 l 0,1.1525199 c 0,0.071943 -0.059599,0.1312997 -0.131836,0.1312997 l -1.1572265,0 c -0.072237,0 -0.131836,-0.059356 -0.131836,-0.1312997 l 0,-1.1525199 c 0,-0.071943 0.059599,-0.1312997 0.131836,-0.1312997 z m 2.1826172,0 1.171875,0 c 0.072237,0 0.1318359,0.059356 0.1318359,0.1312997 l 0,1.1525199 c 0,0.071943 -0.059599,0.1312997 -0.1318359,0.1312997 l -1.171875,0 c -0.072237,0 -0.131836,-0.059356 -0.131836,-0.1312997 l 0,-1.1525199 c 0,-0.071943 0.059599,-0.1312997 0.131836,-0.1312997 z m 2.1972656,0 1.1572268,0 c 0.07224,0 0.131836,0.059356 0.131836,0.1312997 l 0,1.1525199 c 0,0.071943 -0.0596,0.1312997 -0.131836,0.1312997 l -1.1572268,0 c -0.072237,0 -0.1318359,-0.059356 -0.1318359,-0.1312997 l 0,-1.1525199 c 0,-0.071943 0.059599,-0.1312997 0.1318359,-0.1312997 z m 2.1826168,0 1.157227,0 c 0.07224,0 0.131836,0.059356 0.131836,0.1312997 l 0,1.1525199 c 0,0.071943 -0.0596,0.1312997 -0.131836,0.1312997 l -1.157227,0 c -0.07224,0 -0.131836,-0.059356 -0.131836,-0.1312997 l 0,-1.1525199 c 0,-0.071943 0.0596,-0.1312997 0.131836,-0.1312997 z m -8.1591793,2.6551724 8.9941403,0 c 0.07224,0 0.117188,0.059356 0.117188,0.1312997 l 0,0.5981437 c 0,0.07194 -0.04495,0.131299 -0.117188,0.131299 l -8.9941403,0 c -0.072237,0 -0.1171875,-0.05936 -0.1171875,-0.131299 l 0,-0.5981437 c 0,-0.071943 0.04495,-0.1312997 0.1171875,-0.1312997 z"
 id="path4443"
 inkscape:connector-curvature="0" /></svg>