<?xml version="1.0" encoding="UTF-8" standalone="no"?>
<!-- Generator: Adobe Illustrator 15.1.0, SVG Export Plug-In . SVG Version: 6.00 Build 0)  -->

<svg
   xmlns:dc="http://purl.org/dc/elements/1.1/"
   xmlns:cc="http://creativecommons.org/ns#"
   xmlns:rdf="http://www.w3.org/1999/02/22-rdf-syntax-ns#"
   xmlns:svg="http://www.w3.org/2000/svg"
   xmlns="http://www.w3.org/2000/svg"
   xmlns:sodipodi="http://sodipodi.sourceforge.net/DTD/sodipodi-0.dtd"
   xmlns:inkscape="http://www.inkscape.org/namespaces/inkscape"
   version="1.1"
   id="Layer_1"
   x="0px"
   y="0px"
   width="32"
   height="23.5625"
   viewBox="0 0 32 23.5625"
   enable-background="new 0 0 32 32"
   xml:space="preserve"
   inkscape:version="0.48.3.1 r9886"
   sodipodi:docname="ime-inactive.svg"><metadata
   id="metadata7"><rdf:RDF><cc:Work
       rdf:about=""><dc:format>image/svg+xml</dc:format><dc:type
         rdf:resource="http://purl.org/dc/dcmitype/StillImage" /><dc:title /></cc:Work></rdf:RDF></metadata><defs
   id="defs5" /><sodipodi:namedview
   pagecolor="#ffffff"
   bordercolor="#666666"
   borderopacity="1"
   objecttolerance="10"
   gridtolerance="10"
   guidetolerance="10"
   inkscape:pageopacity="0"
   inkscape:pageshadow="2"
   inkscape:window-width="1920"
   inkscape:window-height="1024"
   id="namedview3"
   showgrid="false"
   showguides="true"
   inkscape:guide-bbox="true"
   inkscape:zoom="11.313709"
   inkscape:cx="7.9387686"
   inkscape:cy="9.7406437"
   inkscape:window-x="0"
   inkscape:window-y="27"
   inkscape:window-maximized="1"
   inkscape:current-layer="Layer_1"
   fit-margin-top="0"
   fit-margin-left="0"
   fit-margin-right="0"
   fit-margin-bottom="0" />
<path
   style="font-size:medium;font-style:normal;font-variant:normal;font-weight:normal;font-stretch:normal;text-indent:0;text-align:start;text-decoration:none;line-height:normal;letter-spacing:normal;word-spacing:normal;text-transform:none;direction:ltr;block-progression:tb;writing-mode:lr-tb;text-anchor:start;baseline-shift:baseline;color:#000000;fill:#565656;fill-opacity:0.55000001;stroke:none;stroke-width:1.50000000000000000;marker:none;visibility:visible;display:inline;overflow:visible;enable-background:accumulate;font-family:Sans;-inkscape-font-specification:Sans"
   d="m 14.40625,0 c 0,0 -0.09206,0.2282048 -0.21875,0.5 -0.118962,0.2552223 -0.343456,0.5183848 -0.34375,0.53125 -0.07459,0.00564 -0.374806,0.1064315 -0.78125,0.125 -0.541925,0.024758 -1.252016,0.00437 -2,-0.03125 C 9.5665318,1.0537633 7.97186,0.9110738 6.90625,1.09375 l -0.03125,0 c -0.6440186,0.1198973 -1.1017059,0.548512 -1.4375,1 -0.3407477,0.458148 -0.5873895,0.9776 -0.75,1.46875 -0.2487501,0.751327 -0.3389545,1.329266 -0.375,1.625 l -4.3125,0 0,18.375 32,0 0,-18.375 -26.15625,0 C 5.8929222,4.889017 5.9697935,4.500037 6.125,4.03125 6.2560186,3.635521 6.4309233,3.229693 6.625,2.96875 6.8190767,2.707807 7.0067168,2.593491 7.1875,2.5625 7.7997705,2.457539 9.4445334,2.55242 10.96875,2.625 c 0.762108,0.03629 1.517666,0.06042 2.15625,0.03125 0.638584,-0.02917 1.151111,0.0042 1.6875,-0.4375 0.418957,-0.345022 0.558509,-0.7187184 0.71875,-1.0625 C 15.691491,0.8124684 15.8125,0.5 15.8125,0.5 L 14.40625,0 z m -11.375,9.375 2.46875,0 c 0.1541065,0 0.28125,0.09589 0.28125,0.25 l 0,2.5 c 0,0.154106 -0.1271435,0.28125 -0.28125,0.28125 l -2.46875,0 C 2.8771435,12.40625 2.75,12.279106 2.75,12.125 l 0,-2.5 c 0,-0.154106 0.1271435,-0.25 0.28125,-0.25 z m 4.53125,0 2.46875,0 c 0.154106,0 0.28125,0.09589 0.28125,0.25 l 0,2.5 c 0,0.154106 -0.127144,0.28125 -0.28125,0.28125 l -2.46875,0 c -0.1541065,0 -0.28125,-0.127144 -0.28125,-0.28125 l 0,-2.5 c 0,-0.154106 0.1271435,-0.25 0.28125,-0.25 z m 4.53125,0 2.46875,0 c 0.154106,0 0.28125,0.09589 0.28125,0.25 l 0,2.5 c 0,0.154106 -0.127144,0.28125 -0.28125,0.28125 l -2.46875,0 c -0.154106,0 -0.28125,-0.127144 -0.28125,-0.28125 l 0,-2.5 c 0,-0.154106 0.127144,-0.25 0.28125,-0.25 z m 4.53125,0 2.46875,0 c 0.154106,0 0.28125,0.09589 0.28125,0.25 l 0,2.5 c 0,0.154106 -0.127144,0.28125 -0.28125,0.28125 l -2.46875,0 c -0.154106,0 -0.28125,-0.127144 -0.28125,-0.28125 l 0,-2.5 c 0,-0.154106 0.127144,-0.25 0.28125,-0.25 z m 4.53125,0 2.46875,0 c 0.154106,0 0.28125,0.09589 0.28125,0.25 l 0,2.5 c 0,0.154106 -0.127144,0.28125 -0.28125,0.28125 l -2.46875,0 c -0.154106,0 -0.28125,-0.127144 -0.28125,-0.28125 l 0,-2.5 c 0,-0.154106 0.127144,-0.25 0.28125,-0.25 z m 4.53125,0 2.46875,0 c 0.154106,0 0.28125,0.09589 0.28125,0.25 l 0,2.5 c 0,0.154106 -0.127144,0.28125 -0.28125,0.28125 l -2.46875,0 c -0.154106,0 -0.28125,-0.127144 -0.28125,-0.28125 l 0,-2.5 c 0,-0.154106 0.127144,-0.25 0.28125,-0.25 z m -20.53125,4.8125 2.46875,0 c 0.1541065,0 0.28125,0.127144 0.28125,0.28125 l 0,2.46875 c 0,0.154106 -0.1271435,0.28125 -0.28125,0.28125 l -2.46875,0 C 5.0021435,17.21875 4.875,17.091606 4.875,16.9375 l 0,-2.46875 c 0,-0.154106 0.1271435,-0.28125 0.28125,-0.28125 z m 4.65625,0 2.46875,0 c 0.154106,0 0.28125,0.127144 0.28125,0.28125 l 0,2.46875 c 0,0.154106 -0.127144,0.28125 -0.28125,0.28125 l -2.46875,0 c -0.1541065,0 -0.28125,-0.127144 -0.28125,-0.28125 l 0,-2.46875 c 0,-0.154106 0.1271435,-0.28125 0.28125,-0.28125 z m 4.65625,0 2.5,0 c 0.154106,0 0.28125,0.127144 0.28125,0.28125 l 0,2.46875 c 0,0.154106 -0.127144,0.28125 -0.28125,0.28125 l -2.5,0 c -0.154106,0 -0.28125,-0.127144 -0.28125,-0.28125 l 0,-2.46875 c 0,-0.154106 0.127144,-0.28125 0.28125,-0.28125 z m 4.6875,0 2.46875,0 c 0.154106,0 0.28125,0.127144 0.28125,0.28125 l 0,2.46875 c 0,0.154106 -0.127144,0.28125 -0.28125,0.28125 l -2.46875,0 c -0.154106,0 -0.28125,-0.127144 -0.28125,-0.28125 l 0,-2.46875 c 0,-0.154106 0.127144,-0.28125 0.28125,-0.28125 z m 4.65625,0 2.46875,0 c 0.154106,0 0.28125,0.127144 0.28125,0.28125 l 0,2.46875 c 0,0.154106 -0.127144,0.28125 -0.28125,0.28125 l -2.46875,0 c -0.154106,0 -0.28125,-0.127144 -0.28125,-0.28125 l 0,-2.46875 c 0,-0.154106 0.127144,-0.28125 0.28125,-0.28125 z m -17.40625,5.6875 19.1875,0 c 0.154106,0 0.25,0.127144 0.25,0.28125 l 0,1.28125 c 0,0.154106 -0.09589,0.28125 -0.25,0.28125 l -19.1875,0 c -0.1541065,0 -0.25,-0.127144 -0.25,-0.28125 l 0,-1.28125 c 0,-0.154106 0.095893,-0.28125 0.25,-0.28125 z"
   id="path4443"
   inkscape:connector-curvature="0" /></svg>
