<?xml version="1.0" encoding="UTF-8" standalone="no"?>
<!-- Generator: Adobe Illustrator 15.1.0, SVG Export Plug-In . SVG Version: 6.00 Build 0)  -->

<svg
 xmlns:dc="http://purl.org/dc/elements/1.1/"
 xmlns:cc="http://creativecommons.org/ns#"
 xmlns:rdf="http://www.w3.org/1999/02/22-rdf-syntax-ns#"
 xmlns:svg="http://www.w3.org/2000/svg"
 xmlns="http://www.w3.org/2000/svg"
 xmlns:sodipodi="http://sodipodi.sourceforge.net/DTD/sodipodi-0.dtd"
 xmlns:inkscape="http://www.inkscape.org/namespaces/inkscape"
 version="1.1"
 id="Layer_1"
 x="0px"
 y="0px"
 width="32"
 height="23.5625"
 viewBox="0 0 32 23.5625"
 enable-background="new 0 0 32 32"
 xml:space="preserve"
 inkscape:version="0.48.3.1 r9886"
 sodipodi:docname="ime-inactive.svg"><metadata
 id="metadata7"><rdf:RDF><cc:Work
 rdf:about=""><dc:format>image/svg+xml</dc:format><dc:type
 rdf:resource="http://purl.org/dc/dcmitype/StillImage" /><dc:title /></cc:Work></rdf:RDF></metadata><defs
 id="defs5" /><sodipodi:namedview
 pagecolor="#ffffff"
 bordercolor="#666666"
 borderopacity="1"
 objecttolerance="10"
 gridtolerance="10"
 guidetolerance="10"
 inkscape:pageopacity="0"
 inkscape:pageshadow="2"
 inkscape:window-width="1600"
 inkscape:window-height="842"
 id="namedview3"
 showgrid="false"
 showguides="true"
 inkscape:guide-bbox="true"
 inkscape:zoom="11.313709"
 inkscape:cx="8.1155453"
 inkscape:cy="9.7406437"
 inkscape:window-x="1366"
 inkscape:window-y="27"
 inkscape:window-maximized="1"
 inkscape:current-layer="Layer_1"
 fit-margin-top="0"
 fit-margin-left="0"
 fit-margin-right="0"
 fit-margin-bottom="0" />
<path
 style="font-size:medium;font-style:normal;font-variant:normal;font-weight:normal;font-stretch:normal;text-indent:0;text-align:start;text-decoration:none;line-height:normal;letter-spacing:normal;word-spacing:normal;text-transform:none;direction:ltr;block-progression:tb;writing-mode:lr-tb;text-anchor:start;baseline-shift:baseline;color:#000000;fill:#565656;fill-opacity:0.55;stroke:none;stroke-width:1.5;marker:none;visibility:visible;display:inline;overflow:visible;enable-background:accumulate;font-family:Sans;-inkscape-font-specification:Sans"
 d="m 6.7529297,12.5625 c 0,0 -0.043153,0.106536 -0.1025391,0.233422 -0.055763,0.119149 -0.160995,0.242004 -0.1611328,0.24801 -0.034964,0.0026 -0.1756903,0.04969 -0.3662109,0.05836 -0.2540274,0.01156 -0.5868825,0.002 -0.9375,-0.01459 -0.7012351,-0.03326 -1.4487375,-0.09987 -1.9482422,-0.01459 l -0.014648,0 C 2.9207729,13.129083 2.706232,13.329179 2.5488285,13.539954 2.3891026,13.753837 2.2734893,13.99634 2.1972656,14.22563 2.080664,14.576382 2.0383807,14.846189 2.0214844,14.984251 l -2.0214844,0 0,8.578249 15,0 0,-8.578249 -12.2607422,0 c 0.023049,-0.139345 0.059083,-0.320938 0.131836,-0.539788 0.061415,-0.184744 0.1434015,-0.374202 0.234375,-0.496021 0.090973,-0.12182 0.1789297,-0.175188 0.2636718,-0.189656 0.2870018,-0.049 1.0579844,-0.0047 1.772461,0.02918 0.3572381,0.01694 0.7114059,0.02821 1.0107421,0.01459 0.2993363,-0.01362 0.5395833,0.002 0.7910157,-0.204244 0.1963861,-0.161071 0.2618011,-0.335529 0.336914,-0.496021 0.075113,-0.160492 0.131836,-0.306366 0.131836,-0.306366 L 6.7529297,12.5625 z m -5.3320313,4.376658 1.1572266,0 c 0.072237,0 0.1318359,0.04477 0.1318359,0.116711 l 0,1.167108 c 0,0.07194 -0.059598,0.1313 -0.1318359,0.1313 l -1.1572266,0 c -0.072237,0 -0.1318359,-0.05936 -0.1318359,-0.1313 l 0,-1.167108 c 0,-0.07194 0.059599,-0.116711 0.1318359,-0.116711 z m 2.1240235,0 1.1572265,0 c 0.072237,0 0.131836,0.04477 0.131836,0.116711 l 0,1.167108 c 0,0.07194 -0.059599,0.1313 -0.131836,0.1313 l -1.1572265,0 c -0.072237,0 -0.131836,-0.05936 -0.131836,-0.1313 l 0,-1.167108 c 0,-0.07194 0.059599,-0.116711 0.131836,-0.116711 z m 2.1240234,0 1.1572266,0 c 0.072237,0 0.1318359,0.04477 0.1318359,0.116711 l 0,1.167108 c 0,0.07194 -0.059599,0.1313 -0.1318359,0.1313 l -1.1572266,0 c -0.072237,0 -0.1318359,-0.05936 -0.1318359,-0.1313 l 0,-1.167108 c 0,-0.07194 0.059599,-0.116711 0.1318359,-0.116711 z m 2.1240234,0 1.1572266,0 c 0.072237,0 0.131836,0.04477 0.131836,0.116711 l 0,1.167108 c 0,0.07194 -0.059599,0.1313 -0.131836,0.1313 l -1.1572266,0 c -0.072237,0 -0.1318359,-0.05936 -0.1318359,-0.1313 l 0,-1.167108 c 0,-0.07194 0.059599,-0.116711 0.1318359,-0.116711 z m 2.1240235,0 1.1572268,0 c 0.07224,0 0.131836,0.04477 0.131836,0.116711 l 0,1.167108 c 0,0.07194 -0.0596,0.1313 -0.131836,0.1313 l -1.1572268,0 c -0.072237,0 -0.1318359,-0.05936 -0.1318359,-0.1313 l 0,-1.167108 c 0,-0.07194 0.059599,-0.116711 0.1318359,-0.116711 z m 2.1240238,0 1.157226,0 c 0.07224,0 0.131836,0.04477 0.131836,0.116711 l 0,1.167108 c 0,0.07194 -0.0596,0.1313 -0.131836,0.1313 l -1.157226,0 c -0.07224,0 -0.131836,-0.05936 -0.131836,-0.1313 l 0,-1.167108 c 0,-0.07194 0.0596,-0.116711 0.131836,-0.116711 z m -9.6240238,2.246684 1.1572266,0 c 0.072237,0 0.1318359,0.05936 0.1318359,0.1313 l 0,1.15252 c 0,0.07194 -0.059599,0.1313 -0.1318359,0.1313 l -1.1572266,0 c -0.072237,0 -0.1318359,-0.05936 -0.1318359,-0.1313 l 0,-1.15252 c 0,-0.07194 0.059598,-0.1313 0.1318359,-0.1313 z m 2.1826172,0 1.1572265,0 c 0.072237,0 0.131836,0.05936 0.131836,0.1313 l 0,1.15252 c 0,0.07194 -0.059599,0.1313 -0.131836,0.1313 l -1.1572265,0 c -0.072237,0 -0.131836,-0.05936 -0.131836,-0.1313 l 0,-1.15252 c 0,-0.07194 0.059599,-0.1313 0.131836,-0.1313 z m 2.1826172,0 1.171875,0 c 0.072237,0 0.1318359,0.05936 0.1318359,0.1313 l 0,1.15252 c 0,0.07194 -0.059599,0.1313 -0.1318359,0.1313 l -1.171875,0 c -0.072237,0 -0.131836,-0.05936 -0.131836,-0.1313 l 0,-1.15252 c 0,-0.07194 0.059599,-0.1313 0.131836,-0.1313 z m 2.1972656,0 1.1572268,0 c 0.07224,0 0.131836,0.05936 0.131836,0.1313 l 0,1.15252 c 0,0.07194 -0.0596,0.1313 -0.131836,0.1313 l -1.1572268,0 c -0.072237,0 -0.1318359,-0.05936 -0.1318359,-0.1313 l 0,-1.15252 c 0,-0.07194 0.059599,-0.1313 0.1318359,-0.1313 z m 2.1826168,0 1.157227,0 c 0.07224,0 0.131836,0.05936 0.131836,0.1313 l 0,1.15252 c 0,0.07194 -0.0596,0.1313 -0.131836,0.1313 l -1.157227,0 c -0.07224,0 -0.131836,-0.05936 -0.131836,-0.1313 l 0,-1.15252 c 0,-0.07194 0.0596,-0.1313 0.131836,-0.1313 z m -8.1591793,2.655173 8.9941403,0 c 0.07224,0 0.117188,0.05936 0.117188,0.131299 l 0,0.598144 c 0,0.07194 -0.04495,0.131299 -0.117188,0.131299 l -8.9941403,0 c -0.072237,0 -0.1171875,-0.05936 -0.1171875,-0.131299 l 0,-0.598144 c 0,-0.07194 0.04495,-0.131299 0.1171875,-0.131299 z"
 id="path4443"
 inkscape:connector-curvature="0" /></svg>